<svg width="42" height="24" viewBox="0 0 42 24" fill="none" xmlns="http://www.w3.org/2000/svg">
<path d="M2.984 10.8C3.57067 10.6773 4.10133 10.616 4.576 10.616C5.17333 10.616 5.70133 10.7067 6.16 10.888C6.61867 11.064 7.00267 11.3093 7.312 11.624C7.62667 11.9333 7.86133 12.3013 8.016 12.728C8.176 13.1493 8.256 13.608 8.256 14.104C8.256 14.712 8.14933 15.264 7.936 15.76C7.72267 16.256 7.42933 16.68 7.056 17.032C6.68267 17.384 6.24 17.656 5.728 17.848C5.22133 18.0347 4.67467 18.128 4.088 18.128C3.74133 18.128 3.41067 18.0933 3.096 18.024C2.78667 17.9547 2.496 17.864 2.224 17.752C1.952 17.6347 1.69867 17.5013 1.464 17.352C1.23467 17.2027 1.02933 17.0453 0.848 16.88L1.328 16.208C1.42933 16.0587 1.56533 15.984 1.736 15.984C1.848 15.984 1.97067 16.0267 2.104 16.112C2.24267 16.192 2.40533 16.2827 2.592 16.384C2.77867 16.4853 3 16.5787 3.256 16.664C3.512 16.744 3.816 16.784 4.168 16.784C4.55733 16.784 4.90667 16.7227 5.216 16.6C5.53067 16.472 5.79467 16.2933 6.008 16.064C6.22667 15.8347 6.392 15.56 6.504 15.24C6.62133 14.92 6.68 14.5653 6.68 14.176C6.68 13.8293 6.62933 13.5173 6.528 13.24C6.42667 12.9627 6.27467 12.7253 6.072 12.528C5.86933 12.3307 5.616 12.1813 5.312 12.08C5.008 11.9733 4.65333 11.92 4.248 11.92C3.68267 11.92 3.08 12.0213 2.44 12.224L1.456 11.936L2.392 6.512H7.896V7.192C7.896 7.416 7.824 7.6 7.68 7.744C7.54133 7.88267 7.30667 7.952 6.976 7.952H3.48L2.984 10.8ZM18.0972 12.256C18.0972 13.2587 17.9879 14.128 17.7693 14.864C17.5559 15.6 17.2599 16.2107 16.8813 16.696C16.5079 17.176 16.0653 17.5333 15.5533 17.768C15.0466 18.0027 14.4999 18.12 13.9133 18.12C13.3266 18.12 12.7773 18.0027 12.2653 17.768C11.7586 17.5333 11.3186 17.176 10.9453 16.696C10.5719 16.2107 10.2786 15.6 10.0653 14.864C9.85192 14.128 9.74525 13.2587 9.74525 12.256C9.74525 11.2533 9.85192 10.384 10.0653 9.648C10.2786 8.90667 10.5719 8.296 10.9453 7.816C11.3186 7.33067 11.7586 6.97067 12.2653 6.736C12.7773 6.50133 13.3266 6.384 13.9133 6.384C14.4999 6.384 15.0466 6.50133 15.5533 6.736C16.0653 6.97067 16.5079 7.33067 16.8813 7.816C17.2599 8.296 17.5559 8.90667 17.7693 9.648C17.9879 10.384 18.0972 11.2533 18.0972 12.256ZM16.4813 12.256C16.4813 11.392 16.4093 10.6693 16.2653 10.088C16.1266 9.50667 15.9373 9.04 15.6973 8.688C15.4626 8.33067 15.1906 8.07733 14.8813 7.928C14.5719 7.77867 14.2493 7.704 13.9133 7.704C13.5773 7.704 13.2546 7.77867 12.9453 7.928C12.6359 8.07733 12.3613 8.33067 12.1213 8.688C11.8866 9.04 11.6999 9.50667 11.5613 10.088C11.4226 10.6693 11.3533 11.392 11.3533 12.256C11.3533 13.12 11.4226 13.8427 11.5613 14.424C11.6999 15.0053 11.8866 15.472 12.1213 15.824C12.3613 16.176 12.6359 16.4267 12.9453 16.576C13.2546 16.7253 13.5773 16.8 13.9133 16.8C14.2493 16.8 14.5719 16.7253 14.8813 16.576C15.1906 16.4267 15.4626 16.176 15.6973 15.824C15.9373 15.472 16.1266 15.0053 16.2653 14.424C16.4093 13.8427 16.4813 13.12 16.4813 12.256Z" fill="white"/>
<path fill-rule="evenodd" clip-rule="evenodd" d="M40.6 5C41.37 5 41.993 5.63 41.993 6.4L42 19L39.2 16.2H29.4C28.63 16.2 28 15.57 28 14.8V6.4C28 5.63 28.63 5 29.4 5H40.6ZM30.8 13.4H39.2V12H30.8V13.4ZM39.2 11.3H30.8V9.9H39.2V11.3ZM30.8 9.2H39.2V7.8H30.8V9.2Z" fill="white"/>
</svg>
